<svg xmlns="http://www.w3.org/2000/svg" width="183.30158720547502" height="210.18518507305419" preserveAspectRatio="xMinYMin meet" style=""><rect id="backgroundrect" width="100%" height="100%" x="0" y="0" fill="none" stroke="none" class="" style=""/><g class="currentLayer" style=""><title>Layer 1</title><g class=""><path d="M165.60791704723655,47.734542476793436 l-13.745196521608325,142.5303576355757 l-61.78566673604499,15.85483260808705 l-61.615337722739916,-15.832935180273932 L14.730713629677112,47.734542476793436 h150.87720341755946 z" fill="#E44D26" id="svg_1" class=""/><path d="M90.16931533845685,194.0006012972868 l49.925917764494216,-12.811637577759171 l11.745604875828981,-121.7989678535076 H90.16931533845685 V194.0006012972868 z" fill="#F16529" id="svg_2" class=""/><path d="M63.44895137622355,94.35745090509053 H90.16931533845685 v-17.483453801687595 H42.80661265612994 l0.4518450214065126,4.6904290375695705 l4.6426484529334076,48.179815545809724 H90.16931533845685 v-17.483453801687595 H65.17530689649267 l-1.7263555202691236,-17.903336980004102 zM67.70599386848019,138.48624230547372 h-18.960931133891094 l2.6460139080794995,27.45171037791358 l38.691299928580456,9.94143222715492 l0.0869387672077976,-0.021897427813116595 V157.66729419837316 l-0.08279882591218836,0.020255120727132873 l-21.035633143176494,-5.257572417929286 l-1.344889500887971,-13.9437345956973 z" fill="#EBEBEB" id="svg_3" class=""/><path d="M28.768071722718453,8.994708061218262 h9.598749603962958 v8.778131374583102 h8.780815487987557 V8.994708061218262 h9.599341024148046 v26.58238249373285 h-9.598749603962958 v-8.901304406031883 H38.36741274686649 v8.901304406031883 h-9.598749603962958 V8.994708061218262 zM69.369067428945,17.81006506308367 H60.92003866479129 V8.994708061218262 h26.50390417449144 v8.8153570018654 h-8.454351545819499 v17.76702549186745 h-9.598749603962958 V17.81006506308367 h-0.0005914201850870599 zM91.63012319562189,8.994708061218262 h10.00860379222829 l6.156684126756278,9.340347833684872 L113.94618103951186,8.994708061218262 h10.0127437335239 v26.58238249373285 h-9.559715871747212 V22.401408239798883 l-6.603797786682094,9.451477279836437 h-0.1655976518243767 L101.02187573480435,22.401408239798883 v13.175682315152237 h-9.391752539182491 V8.994708061218262 zM128.73582560798394,8.994708061218262 h9.601706704888393 v17.796039583719832 h13.498574304427022 v8.78634291001302 h-23.100872429500505 V8.994708061218262 z" id="svg_4" class=""/><path d="M90.10425911809727,129.74424168678226 h23.258781618918746 l-2.1929860463028126,22.674786500482202 l-21.066386992801018,5.263046774882567 v18.189098412965276 l38.72205377820497,-9.933220691725 l0.2838816888417883,-2.953963011989424 l4.43919990926346,-46.02839326317101 l0.4607163241828191,-4.694808523132191 H90.10425911809727 v17.483453801687595 zM90.10425911809727,94.314750920855 v0.042699984235577464 h45.623927338170944 l0.3785089184557178,-3.9294934210637678 l0.8611077894867567,-8.863531343054257 l0.4512536012214257,-4.6904290375695705 H90.10425911809727 v17.44130125314734 z" fill="#FFF" id="svg_5" class=""/></g></g></svg>