<svg xmlns="http://www.w3.org/2000/svg" width="256" height="256" preserveAspectRatio="xMinYMin meet"><rect id="backgroundrect" width="100%" height="100%" x="0" y="0" fill="none" stroke="none"/><g class="currentLayer" style=""><title>Layer 1</title><path d="M0 0h256v256H0V0z" fill="#F7DF1E" id="svg_1"/><path d="M54.59523745727539,168.26726229858397 l19.59,-11.856 c3.7800000000000002,6.7010000000000005 7.218,12.371 15.465,12.371 c7.905,0 12.89,-3.092 12.89,-15.12 v-81.798 h24.057 v82.138 c0,24.917 -14.606,36.259 -35.916,36.259 c-19.245,0 -30.416,-9.967 -36.087,-21.996 M139.6642374572754,165.689262298584 l19.588,-11.341 c5.157,8.421 11.859,14.607 23.715,14.607 c9.969,0 16.325,-4.984 16.325,-11.858 c0,-8.248 -6.53,-11.17 -17.528,-15.98 l-6.013,-2.58 c-17.357,-7.3870000000000005 -28.87,-16.667 -28.87,-36.257 c0,-18.044 13.747,-31.792 35.228,-31.792 c15.294,0 26.292,5.328 34.196,19.247 L197.57323745727538,101.76526229858399 c-4.125,-7.389 -8.591,-10.31 -15.465,-10.31 c-7.046,0 -11.514,4.468 -11.514,10.31 c0,7.217 4.468,10.14 14.778,14.608 l6.014,2.577 c20.45,8.765 31.963,17.7 31.963,37.804 c0,21.654 -17.012,33.51 -39.867,33.51 c-22.339,0 -36.774,-10.654 -43.819,-24.574 " id="svg_2" class=""/></g></svg>