<?xml version="1.0" standalone="no"?>
<!DOCTYPE svg PUBLIC "-//W3C//DTD SVG 20010904//EN"
 "http://www.w3.org/TR/2001/REC-SVG-20010904/DTD/svg10.dtd">
<svg version="1.0" xmlns="http://www.w3.org/2000/svg"
 width="485.000000pt" height="485.000000pt" viewBox="0 0 485.000000 485.000000"
 preserveAspectRatio="xMidYMid meet">
<metadata>
Created by potrace 1.16, written by Peter Selinger 2001-2019
</metadata>
<g transform="translate(0.000000,485.000000) scale(0.100000,-0.100000)"
fill="#000000" stroke="none">
<path d="M2140 4819 c-969 -118 -1764 -796 -2034 -1734 -67 -234 -81 -346 -81
-655 0 -244 3 -290 24 -405 181 -1013 953 -1785 1966 -1966 115 -21 161 -24
405 -24 244 0 290 3 405 24 1013 181 1785 953 1966 1966 21 115 24 161 24 405
0 244 -3 290 -24 405 -181 1010 -955 1787 -1961 1965 -101 18 -171 23 -370 25
-135 2 -279 -1 -320 -6z m585 -54 c726 -100 1346 -509 1719 -1131 161 -269
272 -598 317 -934 16 -122 16 -418 0 -540 -124 -935 -730 -1677 -1606 -1965
-249 -82 -473 -118 -735 -118 -262 0 -486 36 -735 118 -877 289 -1482 1029
-1606 1965 -16 122 -16 418 0 540 99 750 505 1375 1137 1754 312 187 686 301
1079 330 84 6 324 -4 430 -19z"/>
<path d="M1714 4202 c-74 -12 -152 -190 -209 -477 -63 -319 -60 -693 8 -1063
13 -67 21 -124 19 -127 -3 -2 -17 2 -33 10 -36 19 -122 19 -159 0 -16 -8 -42
-32 -57 -52 -26 -34 -28 -43 -28 -129 0 -88 1 -94 31 -131 77 -96 236 -74 281
38 8 22 20 38 25 37 5 -2 25 -39 44 -83 37 -85 62 -117 137 -172 l47 -35 0
-156 c0 -87 7 -278 15 -427 8 -148 14 -324 14 -390 l-1 -120 -20 115 c-21 125
-28 145 -49 145 -19 0 -15 -72 11 -240 53 -328 72 -397 100 -345 14 27 14 332
0 610 -21 413 -33 757 -27 772 5 14 13 13 71 -7 122 -43 230 -58 401 -59 294
0 475 61 660 224 33 29 65 65 70 79 6 14 18 40 27 56 20 38 48 142 48 182 0
16 9 36 21 46 26 23 21 49 -10 57 -15 3 -29 17 -35 35 -24 66 -62 123 -121
182 -49 49 -73 65 -116 77 -89 26 -185 36 -351 36 -87 0 -158 3 -158 8 0 4 39
25 85 46 67 30 97 52 138 96 74 80 87 111 87 212 0 106 -19 172 -66 227 -40
46 -61 57 -139 72 -68 13 -401 12 -500 -2 -44 -6 -89 -12 -100 -13 -19 -1 -20
7 -26 239 -5 178 -11 256 -23 300 -29 103 -58 136 -112 127z m48 -82 c28 -57
40 -173 42 -389 l1 -204 -130 -37 c-96 -26 -131 -40 -133 -53 -5 -24 32 -22
148 8 52 14 101 25 108 25 9 0 12 -97 12 -454 l0 -454 -36 -27 c-35 -27 -35
-27 -41 -5 -4 14 -12 20 -27 18 -20 -3 -21 -10 -26 -143 l-5 -140 -17 37 c-24
50 -72 221 -97 345 -58 286 -72 677 -33 943 37 249 98 459 158 537 32 42 53
40 76 -7z m671 -611 c105 -16 140 -37 172 -104 24 -47 27 -68 27 -143 0 -78
-3 -94 -25 -128 -27 -42 -73 -88 -123 -122 -44 -30 -221 -88 -329 -107 -49 -9
-101 -19 -115 -23 -27 -8 -39 -37 -18 -45 8 -2 121 -1 253 3 261 8 473 -1 546
-24 114 -35 177 -91 230 -201 39 -81 39 -122 1 -74 -11 13 -23 18 -35 14 -15
-6 -17 -25 -17 -173 l0 -166 -59 -57 c-70 -66 -209 -139 -326 -171 -108 -29
-417 -32 -537 -6 -93 21 -188 54 -204 70 -17 18 -27 1413 -11 1426 37 30 439
51 570 31z m-945 -1021 c42 -45 53 -114 30 -189 -16 -56 -41 -74 -100 -74 -43
0 -53 4 -79 33 -26 29 -29 39 -29 105 0 106 31 147 110 147 35 0 52 -5 68 -22z
m324 -10 c3 -7 6 -97 7 -200 2 -172 1 -188 -15 -188 -26 0 -87 69 -78 89 5 9
10 73 13 142 5 106 9 130 25 148 21 24 42 27 48 9z"/>
<path d="M2126 2681 c-9 -13 -10 -476 -2 -490 5 -7 46 -11 120 -11 163 0 231
28 257 107 17 51 3 102 -38 140 l-35 33 26 31 c46 55 28 150 -36 185 -27 15
-283 19 -292 5z m269 -66 c33 -33 32 -70 -4 -106 -28 -28 -33 -29 -120 -29
l-91 0 0 80 0 80 95 0 c88 0 98 -2 120 -25z m-41 -194 c59 -10 86 -38 86 -88
0 -56 -41 -89 -122 -97 -36 -4 -82 -4 -102 -1 l-36 7 0 88 c0 61 4 90 13 93
19 8 107 7 161 -2z"/>
<path d="M2649 2545 c-45 -24 -64 -105 -25 -105 8 0 23 15 34 34 22 38 63 50
119 34 26 -7 33 -15 39 -44 4 -20 3 -39 -2 -43 -5 -5 -47 -16 -93 -25 -109
-21 -141 -47 -141 -116 0 -36 5 -52 23 -68 48 -45 120 -49 185 -9 l33 19 20
-21 c25 -27 79 -29 79 -3 0 9 -10 23 -21 31 -21 12 -21 19 -17 131 6 129 -3
158 -54 186 -31 18 -146 17 -179 -1z m176 -194 c11 -34 -18 -93 -55 -113 -37
-20 -90 -19 -116 3 -33 27 -9 93 39 104 19 5 98 21 119 24 4 1 9 -7 13 -18z"/>
<path d="M687 2683 c-4 -3 -7 -113 -7 -243 0 -198 2 -240 15 -250 8 -7 22 -10
30 -6 13 4 15 36 15 201 0 107 4 195 9 195 10 0 19 -21 71 -175 74 -221 73
-220 101 -223 34 -4 39 5 78 123 69 207 94 275 102 275 5 0 10 -89 11 -197 l3
-198 25 0 25 0 0 250 0 250 -45 0 -45 0 -40 -120 c-85 -252 -98 -286 -109
-282 -6 2 -38 82 -71 179 -81 237 -76 228 -123 228 -21 0 -42 -3 -45 -7z"/>
<path d="M3286 2528 c-50 -41 -66 -82 -66 -170 0 -84 19 -126 72 -158 43 -26
114 -26 148 0 14 11 28 20 33 20 10 0 9 -39 -4 -83 -19 -70 -112 -87 -170 -31
-27 26 -59 29 -67 6 -2 -7 12 -28 31 -47 33 -33 39 -35 104 -35 79 0 122 20
150 72 15 28 18 64 21 241 l3 207 -22 0 c-12 0 -27 -7 -33 -16 -11 -15 -15
-14 -47 5 -52 32 -106 28 -153 -11z m160 -52 c32 -32 34 -38 34 -100 0 -36 -5
-77 -12 -91 -25 -55 -107 -72 -153 -32 -45 38 -54 140 -19 209 30 59 98 66
150 14z"/>
<path d="M3853 2539 c-43 -27 -74 -96 -80 -172 -3 -52 0 -69 19 -102 47 -80
135 -108 206 -65 18 11 35 20 37 20 3 0 5 -18 5 -39 0 -99 -133 -148 -188 -70
-15 22 -53 23 -60 1 -2 -7 13 -28 33 -47 34 -33 41 -35 103 -35 81 0 125 23
150 78 14 30 17 72 17 237 0 185 -1 200 -18 203 -10 2 -24 -4 -31 -13 -11 -16
-15 -16 -47 4 -44 27 -104 27 -146 0z m148 -57 c27 -24 33 -37 37 -85 6 -70
-1 -97 -34 -136 -21 -26 -33 -31 -69 -31 -64 0 -85 26 -99 121 -18 122 85 203
165 131z"/>
<path d="M3637 2543 c-4 -3 -7 -82 -7 -173 0 -136 3 -170 15 -180 8 -7 22 -10
30 -6 13 4 15 34 15 186 l0 180 -23 0 c-13 0 -27 -3 -30 -7z"/>
</g>
</svg>
