<svg xmlns="http://www.w3.org/2000/svg" width="400" height="400" style=""><rect id="backgroundrect" width="100%" height="100%" x="0" y="0" fill="none" stroke="none"/><style>.st0{fill:#007acc}.st1{fill:#fff}</style><g class="currentLayer" style=""><title>Layer 1</title><path class="st0" d="M0 200V0h400v400H0" id="svg_1"/><path class="st1 selected" d="M62.83227462768555,125.03862304687499 V141.338623046875 h52 v148 h36.9 V141.338623046875 h52 v-16 c0,-9 0,-16.3 -0.4,-16.5 c0,-0.30000000000000004 -31.7,-0.4 -70.2,-0.4 l-70,0.30000000000000004 v16.4 l-0.30000000000000004,-0.1 zM296.5322746276855,108.338623046875 c10.2,2.4 18,7 25,14.3 c3.7,4 9.2,11 9.6,12.8 c0,0.6000000000000001 -17.3,12.3 -27.8,18.8 c-0.4,0.30000000000000004 -2,-1.4 -3.6,-4 c-5.2,-7.4 -10.5,-10.6 -18.8,-11.2 c-12,-0.8 -20,5.5 -20,16 c0,3.2 0.6000000000000001,5 1.8,7.6 c2.7,5.5 7.7,8.8 23.2,15.6 c28.6,12.3 41,20.4 48.5,32 c8.5,13 10.4,33.4 4.7,48.7 c-6.4,16.7 -22,28 -44.3,31.7 c-7,1.2 -23,1 -30.5,-0.30000000000000004 c-16,-3 -31.3,-11 -40.7,-21.3 c-3.7,-4 -10.8,-14.7 -10.4,-15.4 l3.8,-2.4 l15,-8.7 l11.3,-6.6 l2.6,3.5 c3.3,5.2 10.7,12.2 15,14.6 c13,6.7 30.4,5.8 39,-2 c3.7,-3.4 5.3,-7 5.3,-12 c0,-4.6 -0.7000000000000001,-6.7 -3,-10.2 c-3.2,-4.4 -9.6,-8 -27.6,-16 c-20.7,-8.8 -29.5,-14.4 -37.7,-23 c-4.7,-5.2 -9,-13.3 -11,-20 c-1.5,-5.8 -2,-20 -0.6000000000000001,-25.7 c4.3,-20 19.4,-34 41,-38 c7,-1.4 23.5,-0.8 30.4,1 l-0.2,0.2 z" id="svg_2"/></g></svg>